<mxfile host="app.diagrams.net" agent="Mozilla/5.0 (Windows NT 10.0; Win64; x64) AppleWebKit/537.36 (KHTML, like Gecko) Chrome/140.0.0.0 Safari/537.36" version="28.2.1">
  <diagram id="Rt5A0ajZrOpsP4GWOwqV" name="ページ1">
    <mxGraphModel dx="925" dy="586" grid="1" gridSize="10" guides="1" tooltips="1" connect="1" arrows="1" fold="1" page="1" pageScale="1" pageWidth="827" pageHeight="1169" math="0" shadow="0">
      <root>
        <mxCell id="0" />
        <mxCell id="1" parent="0" />
        <mxCell id="lOV558taVk9AntGKWmvU-2" value="RoboD&lt;span style=&quot;background-color: transparent; color: light-dark(rgb(0, 0, 0), rgb(255, 255, 255));&quot;&gt;og&lt;/span&gt;" style="rounded=0;whiteSpace=wrap;html=1;" vertex="1" parent="1">
          <mxGeometry x="349" y="110" width="120" height="60" as="geometry" />
        </mxCell>
        <mxCell id="lOV558taVk9AntGKWmvU-3" value="名前" style="rounded=0;whiteSpace=wrap;html=1;" vertex="1" parent="1">
          <mxGeometry x="108" y="270" width="120" height="60" as="geometry" />
        </mxCell>
        <mxCell id="lOV558taVk9AntGKWmvU-4" value="" style="endArrow=diamondThin;endFill=0;endSize=24;html=1;rounded=0;entryX=0;entryY=0.75;entryDx=0;entryDy=0;exitX=0.5;exitY=0;exitDx=0;exitDy=0;" edge="1" parent="1" target="lOV558taVk9AntGKWmvU-2">
          <mxGeometry width="160" relative="1" as="geometry">
            <mxPoint x="168" y="270" as="sourcePoint" />
            <mxPoint x="298" y="90" as="targetPoint" />
          </mxGeometry>
        </mxCell>
        <mxCell id="lOV558taVk9AntGKWmvU-5" value="時刻" style="rounded=0;whiteSpace=wrap;html=1;" vertex="1" parent="1">
          <mxGeometry x="189" y="370" width="120" height="60" as="geometry" />
        </mxCell>
        <mxCell id="lOV558taVk9AntGKWmvU-6" value="挨拶" style="rounded=0;whiteSpace=wrap;html=1;" vertex="1" parent="1">
          <mxGeometry x="349" y="370" width="120" height="60" as="geometry" />
        </mxCell>
        <mxCell id="lOV558taVk9AntGKWmvU-7" value="" style="endArrow=diamondThin;endFill=0;endSize=24;html=1;rounded=0;entryX=0.25;entryY=1;entryDx=0;entryDy=0;exitX=0.5;exitY=0;exitDx=0;exitDy=0;" edge="1" parent="1" source="lOV558taVk9AntGKWmvU-5" target="lOV558taVk9AntGKWmvU-2">
          <mxGeometry width="160" relative="1" as="geometry">
            <mxPoint x="459" y="450" as="sourcePoint" />
            <mxPoint x="589" y="270" as="targetPoint" />
          </mxGeometry>
        </mxCell>
        <mxCell id="lOV558taVk9AntGKWmvU-8" value="" style="endArrow=diamondThin;endFill=0;endSize=24;html=1;rounded=0;entryX=0.5;entryY=1;entryDx=0;entryDy=0;exitX=0.5;exitY=0;exitDx=0;exitDy=0;" edge="1" parent="1" source="lOV558taVk9AntGKWmvU-6" target="lOV558taVk9AntGKWmvU-2">
          <mxGeometry width="160" relative="1" as="geometry">
            <mxPoint x="559" y="410" as="sourcePoint" />
            <mxPoint x="689" y="230" as="targetPoint" />
          </mxGeometry>
        </mxCell>
        <mxCell id="lOV558taVk9AntGKWmvU-9" value="足し算の結果" style="rounded=0;whiteSpace=wrap;html=1;" vertex="1" parent="1">
          <mxGeometry x="599" y="270" width="120" height="60" as="geometry" />
        </mxCell>
        <mxCell id="lOV558taVk9AntGKWmvU-10" value="" style="endArrow=diamondThin;endFill=0;endSize=24;html=1;rounded=0;entryX=1;entryY=0.75;entryDx=0;entryDy=0;exitX=0.5;exitY=0;exitDx=0;exitDy=0;" edge="1" parent="1" source="lOV558taVk9AntGKWmvU-9" target="lOV558taVk9AntGKWmvU-2">
          <mxGeometry width="160" relative="1" as="geometry">
            <mxPoint x="548" y="790" as="sourcePoint" />
            <mxPoint x="468" y="620" as="targetPoint" />
          </mxGeometry>
        </mxCell>
        <mxCell id="lOV558taVk9AntGKWmvU-11" value="二つの整数" style="rounded=0;whiteSpace=wrap;html=1;" vertex="1" parent="1">
          <mxGeometry x="509" y="370" width="120" height="60" as="geometry" />
        </mxCell>
        <mxCell id="lOV558taVk9AntGKWmvU-12" value="" style="endArrow=diamondThin;endFill=0;endSize=24;html=1;rounded=0;entryX=0.75;entryY=1;entryDx=0;entryDy=0;exitX=0.5;exitY=0;exitDx=0;exitDy=0;" edge="1" parent="1" source="lOV558taVk9AntGKWmvU-11" target="lOV558taVk9AntGKWmvU-2">
          <mxGeometry width="160" relative="1" as="geometry">
            <mxPoint x="448" y="640" as="sourcePoint" />
            <mxPoint x="368" y="470" as="targetPoint" />
          </mxGeometry>
        </mxCell>
      </root>
    </mxGraphModel>
  </diagram>
</mxfile>
